<svg width="72" height="18" viewBox="0 0 72 18" fill="none" xmlns="http://www.w3.org/2000/svg">
<path d="M6.02197 5.01025L5.18701 5.87305C4.4943 5.19889 3.81706 4.86182 3.15527 4.86182C2.7347 4.86182 2.37288 5.00098 2.06982 5.2793C1.77295 5.55762 1.62451 5.88232 1.62451 6.25342C1.62451 6.58122 1.74821 6.89355 1.99561 7.19043C2.243 7.49349 2.76253 7.84912 3.5542 8.25732C4.51904 8.7583 5.17464 9.24072 5.521 9.70459C5.86117 10.1746 6.03125 10.7035 6.03125 11.291C6.03125 12.1198 5.74056 12.8218 5.15918 13.397C4.5778 13.9722 3.85107 14.2598 2.979 14.2598C2.39762 14.2598 1.84098 14.133 1.30908 13.8794C0.783366 13.6258 0.347331 13.2764 0.000976562 12.8311L0.817383 11.9033C1.47917 12.6517 2.18115 13.0259 2.92334 13.0259C3.44287 13.0259 3.88509 12.8589 4.25 12.5249C4.61491 12.1909 4.79736 11.7982 4.79736 11.3467C4.79736 10.9756 4.67676 10.6447 4.43555 10.354C4.19434 10.0695 3.65007 9.71077 2.80273 9.27783C1.89355 8.80778 1.27507 8.34391 0.947266 7.88623C0.619466 7.42855 0.455566 6.90592 0.455566 6.31836C0.455566 5.55143 0.715332 4.91439 1.23486 4.40723C1.76058 3.90007 2.42236 3.64648 3.22021 3.64648C4.14795 3.64648 5.08187 4.10107 6.02197 5.01025ZM9.46387 0.158203H10.772V3.90625H12.8315V5.01953H10.772V14H9.46387V5.01953H7.69189V3.90625H9.46387V0.158203ZM19.5483 3.64648C21.1007 3.64648 22.3872 4.20931 23.4077 5.33496C24.3354 6.36165 24.7993 7.57699 24.7993 8.98096C24.7993 10.3911 24.3076 11.625 23.3242 12.6826C22.347 13.734 21.0884 14.2598 19.5483 14.2598C18.0021 14.2598 16.7373 13.734 15.7539 12.6826C14.7767 11.625 14.2881 10.3911 14.2881 8.98096C14.2881 7.58317 14.752 6.37093 15.6797 5.34424C16.7002 4.2124 17.9897 3.64648 19.5483 3.64648ZM19.5483 4.91748C18.4722 4.91748 17.5475 5.31641 16.7744 6.11426C16.0013 6.91211 15.6147 7.87695 15.6147 9.00879C15.6147 9.73861 15.791 10.4189 16.1436 11.0498C16.4961 11.6807 16.9723 12.1693 17.5723 12.5156C18.1722 12.8558 18.8309 13.0259 19.5483 13.0259C20.2658 13.0259 20.9245 12.8558 21.5244 12.5156C22.1243 12.1693 22.6006 11.6807 22.9531 11.0498C23.3057 10.4189 23.4819 9.73861 23.4819 9.00879C23.4819 7.87695 23.0923 6.91211 22.313 6.11426C21.5399 5.31641 20.6183 4.91748 19.5483 4.91748ZM26.729 3.90625H28.0557V5.38135C28.4515 4.79997 28.869 4.36702 29.3081 4.08252C29.7472 3.79183 30.2049 3.64648 30.6812 3.64648C31.0399 3.64648 31.4233 3.7609 31.8315 3.98975L31.1543 5.08447C30.8822 4.96696 30.6533 4.9082 30.4678 4.9082C30.0348 4.9082 29.6174 5.08757 29.2153 5.44629C28.8133 5.79883 28.5072 6.34928 28.2969 7.09766C28.1361 7.67285 28.0557 8.83561 28.0557 10.5859V14H26.729V3.90625ZM41.4336 10.6509L42.5283 11.2261C42.1696 11.9312 41.7552 12.5002 41.2852 12.9331C40.8151 13.366 40.2863 13.6969 39.6987 13.9258C39.1112 14.1484 38.4463 14.2598 37.7041 14.2598C36.0589 14.2598 34.7725 13.7217 33.8447 12.6455C32.917 11.5632 32.4531 10.3416 32.4531 8.98096C32.4531 7.70068 32.8459 6.55957 33.6313 5.55762C34.6271 4.28353 35.96 3.64648 37.6299 3.64648C39.3493 3.64648 40.7223 4.29899 41.749 5.604C42.4788 6.52555 42.8499 7.67594 42.8623 9.05518H33.7891C33.8138 10.2303 34.188 11.1951 34.9116 11.9497C35.6353 12.6981 36.529 13.0723 37.5928 13.0723C38.1061 13.0723 38.604 12.9826 39.0864 12.8032C39.575 12.6239 39.9894 12.3857 40.3296 12.0889C40.6698 11.792 41.0378 11.3127 41.4336 10.6509ZM41.4336 7.93262C41.2604 7.23991 41.0068 6.68636 40.6729 6.27197C40.3451 5.85758 39.909 5.5236 39.3647 5.27002C38.8205 5.01644 38.2484 4.88965 37.6484 4.88965C36.6589 4.88965 35.8084 5.20817 35.0972 5.84521C34.5776 6.30908 34.1849 7.00488 33.9189 7.93262H41.4336ZM46.7217 11.959C47.0371 11.959 47.3062 12.0703 47.5288 12.293C47.7515 12.5156 47.8628 12.7878 47.8628 13.1094C47.8628 13.4248 47.7515 13.6969 47.5288 13.9258C47.3062 14.1484 47.0371 14.2598 46.7217 14.2598C46.4062 14.2598 46.1372 14.1484 45.9146 13.9258C45.6919 13.6969 45.5806 13.4248 45.5806 13.1094C45.5806 12.7878 45.6919 12.5156 45.9146 12.293C46.1372 12.0703 46.4062 11.959 46.7217 11.959ZM50.5811 3.90625H51.8706V5.76172C52.384 5.05664 52.9746 4.52783 53.6426 4.17529C54.3105 3.82275 55.0558 3.64648 55.8784 3.64648C57.3133 3.64648 58.541 4.16292 59.5615 5.1958C60.582 6.22868 61.0923 7.47184 61.0923 8.92529C61.0923 10.4097 60.5851 11.6714 59.5708 12.7104C58.5627 13.7433 57.3442 14.2598 55.9155 14.2598C55.1115 14.2598 54.3724 14.0928 53.6982 13.7588C53.0241 13.4248 52.4149 12.9269 51.8706 12.2651V17.6924H50.5811V3.90625ZM55.7764 4.89893C54.6507 4.89893 53.7013 5.29167 52.9282 6.07715C52.1613 6.86263 51.7778 7.83984 51.7778 9.00879C51.7778 9.77572 51.9479 10.4653 52.2881 11.0776C52.6344 11.6899 53.1261 12.1755 53.7632 12.5342C54.4064 12.8929 55.0837 13.0723 55.7949 13.0723C56.4938 13.0723 57.1494 12.8929 57.7617 12.5342C58.3802 12.1693 58.8719 11.6621 59.2368 11.0127C59.6017 10.3633 59.7842 9.68294 59.7842 8.97168C59.7842 8.25423 59.6017 7.57389 59.2368 6.93066C58.8781 6.28743 58.3926 5.78955 57.7803 5.43701C57.168 5.07829 56.5 4.89893 55.7764 4.89893ZM63.5229 0.00976562H64.8311V7.96973L69.4976 3.90625H71.4087L65.8701 8.72119L71.7334 14H69.8965L64.8311 9.46338V14H63.5229V0.00976562Z" fill="white"/>
</svg>
